<svg width="291" height="319" viewBox="0 0 291 319" fill="none" xmlns="http://www.w3.org/2000/svg">
<path d="M99.1684 293.77L140.956 318.671L141.58 319V205.37L142.204 197.277L142.827 191.674L143.451 186.072C145.447 166.151 156.341 153.285 161.538 149.342L173.389 140.627L290.644 73.3931L180.249 10.5172L168.399 4.91434C150.437 -4.54817 128.066 1.80167 119.127 6.15941L115.385 8.02701L32.4324 54.7171L22.4532 60.9424L16.8399 65.3001C4.3659 74.7626 0.4158 96.6343 0 106.387V111.368V208.483L0.6237 214.086C2.12058 228.03 12.8898 241.477 18.0873 246.457L26.8191 253.305L34.9273 257.981C34.7194 222.806 34.4283 147.848 34.9273 129.421C35.4262 110.994 44.6986 98.917 49.2724 95.1817L54.262 90.824L60.499 85.8437L65.4886 82.7311L138.462 39.7762L203.326 77.1283L124.116 123.196L117.256 128.176L112.89 131.911C101.414 140.378 98.9605 160.34 99.1684 169.263V293.77Z" fill="#2C2B29"/>
<path d="M155.956 204.152V311.911L194.587 288.301V206.573L210.39 228.973L241.412 210.811L246.095 195.676V259.242L283.556 236.237V92.1553L246.68 114.555L222.097 189.017L194.001 145.429C186.392 149.465 169.652 159.595 163.565 167.829C157.477 176.062 155.956 195.475 155.956 204.152Z" fill="#2C2B29"/>
</svg>
